Coordinates
version=1
nRows=7
nColumns=46
inDegrees=yes

Units are S.I. units (second, meters, Newtons, ...)
Angles are in degrees.

endheader
time	pelvis_tilt	pelvis_list	pelvis_rotation	pelvis_tx	pelvis_ty	pelvis_tz	bb_angle	bb_tx	bb_ty	bb_tz	hip_flexion_r	hip_adduction_r	hip_rotation_r	knee_angle_r	knee_angle_r_beta	ankle_angle_r	subtalar_angle_r	mtp_angle_r	crank_angle_r	hip_flexion_l	hip_adduction_l	hip_rotation_l	knee_angle_l	knee_angle_l_beta	ankle_angle_l	subtalar_angle_l	mtp_angle_l	crank_angle_l	lumbar_extension	lumbar_bending	lumbar_rotation	arm_flex_r	arm_add_r	arm_rot_r	elbow_flex_r	pro_sup_r	wrist_flex_r	wrist_dev_r	arm_flex_l	arm_add_l	arm_rot_l	elbow_flex_l	pro_sup_l	wrist_flex_l	wrist_dev_l
      0.00500000	    -25.01216886	      4.81169801	      0.91936640	      0.15026922	      1.10371064	     -0.26968943	      0.00000000	      0.50000000	      0.00000000	      0.25000000	     51.99256040	     -7.37857051	      2.05198123	     51.74537492	      0.90312717	      7.60206538	     -9.16941525	      0.00000000	      0.00000000	     97.75033418	     -8.92668133	     -2.78691362	    102.51913692	      1.78929649	     21.63502215	      2.90023767	      0.00000000	      0.00000000	    -39.90615091	     -1.20757752	     -7.46770065	     77.35370245	     -6.04235193	     38.08752072	     38.22188304	     45.32366416	      0.00000000	      0.00000000	     76.87189815	    -22.12678693	     45.20589702	     41.17576690	     49.90709635	      0.00000000	      0.00000000
      0.01000000	    -25.07763925	      4.75895330	      0.87221086	      0.15020375	      1.10355850	     -0.26962912	      0.00000000	      0.50000000	      0.00000000	      0.25000000	     52.08525658	     -7.28803664	      2.05444861	     51.78363001	      0.90379484	      7.48854687	     -9.24335306	      0.00000000	      0.00000000	     97.83746898	     -8.97507424	     -2.71931698	    102.50718748	      1.78908793	     21.63528931	      2.87332671	      0.00000000	      0.00000000	    -39.81573426	     -1.19495490	     -7.38976363	     77.32097384	     -5.93143965	     37.75854850	     38.15403437	     45.07916431	      0.00000000	      0.00000000	     76.68344508	    -21.97748529	     44.61052711	     41.31798057	     49.43640595	      0.00000000	      0.00000000
      0.01500000	    -25.05909048	      4.74748918	      0.87343363	      0.15014937	      1.10358744	     -0.26967574	      0.00000000	      0.50000000	      0.00000000	      0.25000000	     52.07954299	     -7.29026884	      2.04120012	     51.81413744	      0.90432730	      7.50318710	     -9.21359605	      0.00000000	      0.00000000	     97.81520357	     -8.95739895	     -2.71151845	    102.48243347	      1.78865589	     21.62685360	      2.83707733	      0.00000000	      0.00000000	    -39.83731425	     -1.18049057	     -7.38181260	     77.34780554	     -5.91393218	     37.77906709	     38.08841225	     44.96303714	      0.00000000	      0.00000000	     76.68001645	    -21.94079931	     44.52717934	     41.27704455	     49.21210642	      0.00000000	      0.00000000
      0.02000000	    -25.07282880	      4.74579395	      0.85422050	      0.15010017	      1.10349383	     -0.26963068	      0.00000000	      0.50000000	      0.00000000	      0.25000000	     52.15066413	     -7.24451225	      2.08351002	     51.90244662	      0.90586858	      7.40148321	     -9.39842900	      0.00000000	      0.00000000	     97.83607765	     -8.99625250	     -2.72250141	    102.47260471	      1.78848435	     21.62652963	      2.83347333	      0.00000000	      0.00000000	    -39.80280636	     -1.18265622	     -7.34961000	     77.33389094	     -5.77985843	     37.63575386	     37.93395780	     44.70331995	      0.00000000	      0.00000000	     76.48721867	    -21.80758912	     43.95195547	     41.43236503	     48.61549740	      0.00000000	      0.00000000
      0.02500000	    -25.06348639	      4.75051692	      0.87335423	      0.15007809	      1.10354178	     -0.26968363	      0.00000000	      0.50000000	      0.00000000	      0.25000000	     52.14769028	     -7.26888954	      2.07028627	     51.93552471	      0.90644591	      7.47029119	     -9.24635751	      0.00000000	      0.00000000	     97.80641420	     -8.94649299	     -2.72390265	    102.43791962	      1.78787898	     21.65384389	      2.85859986	      0.00000000	      0.00000000	    -39.87819544	     -1.17629128	     -7.39566551	     77.14418023	     -5.86358959	     37.11236059	     38.73236869	     44.73042200	      0.00000000	      0.00000000	     76.27052156	    -21.86188361	     43.30093967	     41.97062601	     48.47284579	      0.00000000	      0.00000000
      0.03000000	    -25.08831372	      4.72408927	      0.83321231	      0.15003160	      1.10348068	     -0.26964657	      0.00000000	      0.50000000	      0.00000000	      0.25000000	     52.18134307	     -7.19638355	      2.11410400	     51.93797312	      0.90648864	      7.36019517	     -9.41149715	      0.00000000	      0.00000000	     97.84886312	     -8.99079080	     -2.69460497	    102.42917175	      1.78772630	     21.60655921	      2.77812769	      0.00000000	      0.00000000	    -39.77722477	     -1.17716943	     -7.31932207	     77.35843316	     -5.71647943	     37.57191695	     37.81903923	     44.46770308	      0.00000000	      0.00000000	     76.33092397	    -21.71726208	     43.55131701	     41.55263990	     48.01874870	      0.00000000	      0.00000000
      0.03500000	    -24.97738826	      4.80442186	      0.88332822	      0.15001514	      1.10374398	     -0.26974013	      0.00000000	      0.50000000	      0.00000000	      0.25000000	     52.08137520	     -7.32709423	      2.10512956	     51.98228489	      0.90726202	      7.46769954	     -9.22845568	      0.00000000	      0.00000000	     97.67890863	     -8.91829457	     -2.78855183	    102.37454670	      1.78677291	     21.64854797	      2.82713896	      0.00000000	      0.00000000	    -39.94298182	     -1.22411248	     -7.45428746	     77.41494924	     -6.00587343	     38.30921342	     38.24902695	     44.56114102	      0.00000000	      0.00000000	     76.60395711	    -22.11725413	     44.60827627	     41.69148298	     48.01169451	      0.00000000	      0.00000000
